HIERARCHY
ROOT Hips
{
	OFFSET 0.00000 0.00000 0.00000
	CHANNELS 6 Xposition Yposition Zposition Yrotation Zrotation Xrotation 
	JOINT Lumbar
	{
		OFFSET 0 0 0
		CHANNELS 3 Zrotation Xrotation Yrotation
		JOINT Neck
		{
			OFFSET 0.00 0.2701 0.00
			CHANNELS 3 Zrotation Xrotation Yrotation
			End Site
			{
				OFFSET 0.00 0.1379 0.00
			}
		}
		JOINT RightShoulder
		{
			OFFSET 0.0119 0.2289 0.1181
			CHANNELS 3 Zrotation Xrotation Yrotation
			JOINT RightElbow
			{
				OFFSET 0.00 -0.1475 0.00
				CHANNELS 2 Zrotation Yrotation
				JOINT RightWrist
				{
					OFFSET 0.00 -0.1605 0.00
					CHANNELS 2 Zrotation Xrotation
					End Site
					{
						OFFSET 0.0040 -0.1068 0.0006
					}
				}
			}
		}
		JOINT LeftShoulder
		{
			OFFSET 0.0119 0.2289 -0.1181
			CHANNELS 3 Zrotation Xrotation Yrotation
			JOINT LeftElbow
			{
				OFFSET 0.00 -0.1475 0.00
				CHANNELS 2 Zrotation Yrotation
				JOINT LeftWrist
				{
					OFFSET 0.00 -0.1605 0.00
					CHANNELS 2 Zrotation Xrotation
					End Site
					{
						OFFSET 0.0040 -0.1068 -0.0006
					}
				}
			}
		}
	}
	JOINT RightHip
	{
		OFFSET 0.0316 -0.0424 0.0458
		CHANNELS 3 Zrotation Xrotation Yrotation
		JOINT RightKnee
		{
			OFFSET 0.00 -0.2438 0.00
			CHANNELS 1 Zrotation
			JOINT RightAnkle
			{
				OFFSET 0.00 -0.2449 0.00
				CHANNELS 3 Zrotation Xrotation Yrotation
				End Site
				{
					OFFSET 0.1237 -0.0542 0.0051
				}
			}
		}
	}
	JOINT LeftHip
	{
		OFFSET 0.0316 -0.0424 -0.0458
		CHANNELS 3 Zrotation Xrotation Yrotation
		JOINT LeftKnee
		{
			OFFSET 0.00 -0.2438 0.00
			CHANNELS 1 Zrotation
			JOINT LeftAnkle
			{
				OFFSET 0.00 -0.2449 0.00
				CHANNELS 3 Zrotation Xrotation Yrotation
				End Site
				{
					OFFSET 0.1237 -0.0542 -0.0051
				}
			}
		}
	}
}
MOTION
Frames: 30
Frame Time: 0.02
-0.00195 0.0001 0.00103 178.40282 -45.61321 -1.24565 58.175 1.54113 -0.93416 -9.17591 -4.97679 -1.21065 170.09404 -73.15707 -44.40108 13.95053 75.63067 0.56473 -8.44655 161.68875 73.21219 71.53205 10.75335 -75.50658 0.1395 10.00462 48.40495 -2.86013 -7.88021 -19.15894 -7.43867 -3.4933 -3.97722 52.60959 9.07422 10.57341 -24.37387 -9.44287 4.13286 4.40187
-0.00122 0.00013 0.00083 178.42397 -45.59008 -1.24358 58.04256 1.51565 -0.9123 -9.3917 -4.9643 -1.24036 169.33466 -73.34373 -45.09771 14.00636 75.95464 0.53458 -8.44214 161.0996 73.21844 72.16249 10.74567 -75.49465 0.17001 9.98014 48.47758 -2.85947 -8.01206 -19.19925 -7.44066 -3.48921 -3.97419 52.67692 9.08552 10.52209 -24.37768 -9.46473 4.13381 4.40332
-0.00049 0.00016 0.00064 178.44506 -45.5669 -1.24151 57.91009 1.49019 -0.89044 -9.60737 -4.95187 -1.27005 168.57525 -73.53042 -45.79469 14.06201 76.2777 0.50458 -8.43754 160.51078 73.225 72.79247 10.73791 -75.48384 0.20024 9.95551 48.55008 -2.85885 -8.14393 -19.23953 -7.44263 -3.48509 -3.97116 52.74413 9.09683 10.47084 -24.38149 -9.48656 4.13476 4.40477
0.00024 0.00019 0.00044 178.46614 -45.54382 -1.23945 57.778 1.46478 -0.86864 -9.82259 -4.93942 -1.29969 167.81801 -73.71662 -46.48942 14.11765 76.60066 0.47454 -8.4331 159.92334 73.23128 73.42122 10.73025 -75.47217 0.23066 9.93106 48.62249 -2.8582 -8.27544 -19.27973 -7.44461 -3.48101 -3.96814 52.81126 9.10809 10.41963 -24.3853 -9.50837 4.13571 4.40622
0.00097 0.00022 0.00024 178.4873 -45.52083 -1.23739 57.64605 1.43938 -0.84686 -10.03773 -4.92691 -1.32932 167.0612 -73.90254 -47.18331 14.17352 76.92458 0.4443 -8.42897 159.33572 73.23712 74.04982 10.72269 -75.45885 0.26135 9.90687 48.695 -2.85751 -8.40676 -19.31992 -7.44664 -3.47696 -3.96514 52.87851 9.11934 10.36844 -24.3891 -9.5302 4.13666 4.40767
0.0017 0.00026 5e-05 178.50825 -45.49726 -1.2353 57.51246 1.4138 -0.82481 -10.25447 -4.91466 -1.35913 166.29612 -74.09082 -47.88695 14.22872 77.24584 0.41482 -8.42338 158.74423 73.24518 74.68263 10.71452 -75.45324 0.29057 9.88131 48.7675 -2.85703 -8.53979 -19.36038 -7.44849 -3.47269 -3.96203 52.94563 9.13077 10.31712 -24.39293 -9.55203 4.1376 4.40912
0.00242 0.00029 -0.00015 178.52957 -45.4749 -1.23327 57.38245 1.38861 -0.80336 -10.4678 -4.90191 -1.38854 165.54983 -74.27421 -48.56904 14.2851 77.57188 0.38388 -8.42066 158.16222 73.24881 75.30637 10.70763 -75.43246 0.3229 9.85851 48.83988 -2.85614 -8.6692 -19.40025 -7.45068 -3.46888 -3.95915 53.01288 9.14177 10.26594 -24.3967 -9.57383 4.13858 4.41057
0.00316 0.00032 -0.00035 178.55057 -45.45141 -1.23121 57.2489 1.36304 -0.78132 -10.68417 -4.8896 -1.41831 164.78384 -74.46201 -49.27312 14.34058 77.89395 0.35422 -8.41543 157.56956 73.25642 75.93832 10.69946 -75.42507 0.35206 9.83323 48.91248 -2.85562 -8.80204 -19.44069 -7.45256 -3.46464 -3.95605 53.08011 9.15328 10.21497 -24.40055 -9.59566 4.13949 4.41201
0.0039 0.00035 -0.00055 178.57115 -45.42652 -1.22902 57.11186 1.33709 -0.75869 -10.90487 -4.87787 -1.44861 164.00243 -74.65577 -49.99642 14.39423 78.20956 0.32637 -8.40654 156.97092 73.26935 76.58142 10.69012 -75.4366 0.37853 9.80458 48.98497 -2.85557 -8.93882 -19.48172 -7.45405 -3.4599 -3.95269 53.14696 9.16499 10.16287 -24.40441 -9.61757 4.14043 4.41348
0.00457 0.00039 -0.00072 178.59405 -45.40962 -1.2273 56.99741 1.31356 -0.73983 -11.10249 -4.86292 -1.47614 163.33568 -74.81695 -50.58615 14.45623 78.55751 0.28886 -8.41691 156.4278 73.25307 77.16377 10.68867 -75.34699 0.42401 9.79429 49.05693 -2.85284 -9.05219 -19.51907 -7.45774 -3.45811 -3.95084 53.21492 9.17429 10.1131 -24.40794 -9.63914 4.14153 4.41492
0.00541 0.00041 -0.00095 178.61209 -45.37594 -1.22473 56.83374 1.28478 -0.71279 -11.34757 -4.85471 -1.50933 162.41076 -75.0457 -51.47206 14.50198 78.84028 0.27125 -8.38784 155.75428 73.2975 77.87191 10.66985 -75.46572 0.42716 9.74596 49.13074 -2.85575 -9.21534 -19.56435 -7.45684 -3.45003 -3.94581 53.28125 9.18944 10.06107 -24.41232 -9.66131 4.1421 4.41631
0.00668 0.00038 -0.00133 178.61648 -45.29519 -1.21874 56.54602 1.24248 -0.66497 -11.73441 -4.86564 -1.55962 160.89804 -75.47038 -53.05603 14.48997 78.9205 0.30834 -8.23929 154.82647 73.51648 78.94794 10.60849 -76.20427 0.33113 9.58642 49.20416 -2.87451 -9.51353 -19.63018 -7.44277 -3.42515 -3.9321 53.33759 9.21459 9.98031 -24.41789 -9.68628 4.1427 4.41843
0.00813 0.00035 -0.00175 178.61613 -45.19783 -1.21211 56.20668 1.19475 -0.60872 -12.16662 -4.88317 -1.61531 159.10057 -75.96016 -54.95445 14.46293 78.94176 0.36228 -8.05302 153.74787 73.794 80.14544 10.52858 -77.1436 0.18944 9.39005 49.28061 -2.89884 -9.86194 -19.70421 -7.42421 -3.39389 -3.9152 53.39351 9.24669 9.90108 -24.42451 -9.71167 4.14248 4.42034
0.00953 0.00032 -0.00215 178.61798 -45.10868 -1.20645 55.88396 1.14888 -0.55515 -12.57071 -4.89729 -1.66753 157.35855 -76.41427 -56.78934 14.45287 79.00283 0.41241 -7.89161 152.67142 74.04075 81.27336 10.45403 -77.95897 0.05754 9.21488 49.35907 -2.92039 -10.18846 -19.77525 -7.40804 -3.36521 -3.89972 53.453 9.27964 9.8363 -24.43143 -9.73606 4.14164 4.42177
0.01081 0.00028 -0.00255 178.61918 -45.01649 -1.19783 55.5906 1.10548 -0.50606 -13.00716 -4.91331 -1.72408 155.94093 -76.89744 -58.30727 14.4047 79.00023 0.45914 -7.69836 151.87746 74.30915 82.46487 10.39308 -78.91078 -0.02819 9.0204 49.42264 -2.94309 -10.51135 -19.84313 -7.39029 -3.33776 -3.88433 53.49748 9.29591 9.70905 -24.43517 -9.76373 4.14497 4.42559
0.01237 0.00025 -0.00297 178.62119 -44.92698 -1.19533 55.22312 1.05573 -0.44609 -13.38621 -4.92678 -1.77285 153.76415 -77.33145 -60.53795 14.42636 79.12706 0.50092 -7.56144 150.45614 74.54141 83.54939 10.29853 -79.6286 -0.22089 8.85792 49.51871 -2.96459 -10.85344 -19.91962 -7.37489 -3.30636 -3.86803 53.57407 9.34826 9.71045 -24.44566 -9.78484 4.13946 4.42442
0.01464 0.00023 -0.00348 178.62176 -44.84673 -1.20888 54.66987 0.98891 -0.35423 -13.60196 -4.93307 -1.79898 149.70721 -77.64695 -64.84748 14.69637 79.52703 0.66839 -7.5989 147.36983 74.70048 84.3345 10.12341 -79.62874 -0.69721 8.78727 49.69746 -2.98266 -11.23835 -20.01715 -7.36614 -3.26462 -3.84965 53.73174 9.50097 10.08143 -24.47539 -9.78622 4.10939 4.40921
0.01718 0.00021 -0.00402 178.62424 -44.7703 -1.22873 54.04262 0.91605 -0.25236 -13.75726 -4.93639 -1.81705 144.87545 -77.90365 -69.82842 15.02783 80.07299 0.80799 -7.69286 143.65371 74.81283 85.00141 9.9138 -79.39105 -1.27918 8.75026 49.91024 -2.99921 -11.64051 -20.12329 -7.36008 -3.21928 -3.83052 53.92339 9.68907 10.57836 -24.51166 -9.78134 4.07055 4.38907
0.01962 0.00018 -0.00454 178.62905 -44.69342 -1.24643 53.44517 0.84649 -0.15775 -13.93599 -4.93998 -1.83874 140.29404 -78.16658 -74.37865 15.29678 80.62287 0.86058 -7.75428 140.20354 74.92061 85.70739 9.71486 -79.27633 -1.81384 8.7026 50.11123 -3.0155 -12.03328 -20.22583 -7.35338 -3.17624 -3.81195 54.10431 9.85966 11.00887 -24.54442 -9.78022 4.03588 4.37134
0.02197 0.00016 -0.00507 178.62019 -44.60999 -1.2614 52.8622 0.77434 -0.05179 -14.13307 -4.94794 -1.86086 136.10516 -78.52182 -79.46959 15.7099 80.89352 1.31616 -7.84216 136.82561 75.1422 86.48557 9.53599 -79.10393 -2.3493 8.63769 50.29575 -3.03553 -12.43401 -20.32693 -7.34405 -3.13025 -3.79235 54.26452 10.03744 11.48114 -24.57969 -9.77493 4.00021 4.35277
0.02457 0.00014 -0.00559 178.64033 -44.54199 -1.2832 52.23204 0.70628 0.03327 -14.27736 -4.94652 -1.88005 130.95253 -78.66556 -83.59026 15.83915 81.75678 0.94862 -7.89034 133.15975 75.11135 87.07603 9.30788 -78.99492 -2.90484 8.61265 50.52394 -3.04791 -12.82201 -20.43348 -7.34089 -3.08953 -3.77473 54.47693 10.20737 11.89262 -24.61102 -9.77725 3.9648 4.33491
0.02778 9e-05 -0.00609 178.73991 -44.51009 -1.32537 51.49076 0.65053 0.05416 -14.28713 -4.9158 -1.89338 123.0359 -78.27624 -84.85761 15.15584 84.43225 -1.88398 -7.8008 128.76618 74.42519 87.2045 8.94833 -79.09089 -3.5136 8.72673 50.85317 -3.03448 -13.16587 -20.54836 -7.35432 -3.06518 -3.76319 54.81671 10.35749 12.13869 -24.63189 -9.79832 3.93012 4.31897
0.03123 3e-05 -0.00658 178.86857 -44.49472 -1.37364 50.70454 0.5992 0.05445 -14.24634 -4.87655 -1.90396 114.23193 -77.66851 -85.12403 14.18763 87.66094 -5.50719 -7.67116 124.12152 73.48114 87.11654 8.54159 -79.25812 -4.13441 8.8718 51.22735 -3.01417 -13.49614 -20.66926 -7.37388 -3.04618 -3.75364 55.2094 10.49674 12.31417 -24.64818 -9.82787 3.89635 4.3041
0.03458 -2e-05 -0.00707 178.98422 -44.47549 -1.41715 49.93853 0.54623 0.06663 -14.23068 -4.84378 -1.9156 106.02762 -77.13694 -85.85551 13.35856 90.4966 -8.63772 -7.57075 119.64944 72.63428 87.14192 8.15865 -79.41664 -4.73382 8.97997 51.58818 -3.00049 -13.83655 -20.79035 -7.39044 -3.02407 -3.74288 55.58348 10.6337 12.49871 -24.66521 -9.85617 3.86368 4.2896
0.03788 -7e-05 -0.00759 179.09954 -44.44088 -1.46929 49.17106 0.49161 0.06815 -14.20361 -4.79961 -1.92778 96.96778 -76.70254 -86.57396 12.48975 93.93084 -12.33127 -7.43009 114.90844 71.86817 87.20618 7.76307 -79.48765 -5.40364 9.19056 51.91993 -2.97261 -14.16423 -20.89931 -7.40783 -3.00444 -3.73321 55.93599 10.80136 12.78013 -24.68807 -9.87373 3.82458 4.27146
0.04134 -0.00013 -0.00805 179.22182 -44.44227 -1.50481 48.3966 0.44139 0.0873 -14.18938 -4.77757 -1.93827 89.4882 -76.01256 -87.06513 11.63662 96.25325 -15.04088 -7.35766 110.67614 70.8759 87.00642 7.38494 -79.73507 -5.92892 9.18858 52.32296 -2.97189 -14.51075 -21.03493 -7.42512 -2.9813 -3.72195 56.34532 10.90335 12.84723 -24.69768 -9.91518 3.79885 4.26103
0.04514 -0.0002 -0.00837 179.36158 -44.53869 -1.49317 47.61743 0.40377 0.15614 -14.22058 -4.81537 -1.94478 86.60211 -74.68868 -87.20515 10.88655 95.32307 -14.83137 -7.52995 107.91352 69.29763 87.31552 7.05283 -80.68593 -6.04597 8.64927 52.90744 -3.0547 -14.94986 -21.24166 -7.43882 -2.94414 -3.70422 56.90069 10.81539 12.2884 -24.67112 -10.02528 3.81284 4.27348
0.04908 -0.00029 -0.00864 179.50641 -44.67097 -1.46462 46.8327 0.37023 0.24399 -14.26714 -4.87631 -1.94969 85.33707 -73.11245 -87.11953 10.16517 93.2637 -13.60868 -7.76395 105.67385 67.50438 87.17762 6.7441 -81.77735 -6.01773 7.88744 53.56268 -3.16385 -15.40222 -21.47494 -7.4525 -2.90376 -3.68509 57.51103 10.66367 11.52494 -24.63145 -10.15827 3.83972 4.29336
0.05297 -0.00038 -0.00893 179.64526 -44.78681 -1.44346 46.04828 0.33382 0.32594 -14.30865 -4.92895 -1.95534 83.32735 -71.63944 -87.14116 9.43492 91.75042 -12.85181 -7.93808 103.19587 65.82737 86.4273 6.43202 -82.64217 -6.05954 7.18558 54.18829 -3.25638 -15.82288 -21.69697 -7.46743 -2.86697 -3.66772 58.09447 10.54834 10.88865 -24.59823 -10.27766 3.85875 4.30865
0.05684 -0.00045 -0.00922 179.80028 -44.90316 -1.42328 45.27074 0.30167 0.39623 -14.34049 -4.97217 -1.96086 81.32595 -70.20532 -87.19929 8.67088 90.11432 -12.08819 -8.24258 100.71226 64.06767 88.98143 6.08165 -84.16359 -6.08495 6.64494 54.80508 -3.36809 -16.34791 -21.91668 -7.47752 -2.82173 -3.64583 58.68716 10.40128 10.10708 -24.56288 -10.41082 3.88623 4.32906
